<svg xmlns="http://www.w3.org/2000/svg" width="1089" height="726" viewBox="0 0 1089 726"><rect width="100%" height="100%" fill="#DDDDDD"/><path fill="#999999" d="m272.425 343.395-3.77 5.22q-.64.81-1.25 1.27-.61.47-1.77.47-1.1 0-2.15-.67-1.04-.67-2.49-1.51t-3.45-1.51q-2-.66-4.96-.66-3.77 0-6.61 1.36t-4.73 3.92q-1.88 2.55-2.81 6.17-.93 3.63-.93 8.21 0 4.76 1.02 8.47 1.01 3.71 2.92 6.23 1.92 2.53 4.64 3.83 2.73 1.31 6.15 1.31t5.54-.85q2.12-.84 3.57-1.85 1.45-1.02 2.52-1.86t2.41-.84q1.74 0 2.61 1.34l4.12 5.22q-2.38 2.78-5.17 4.66-2.78 1.89-5.77 3.02-2.98 1.13-6.14 1.6-3.17.46-6.3.46-5.51 0-10.38-2.06t-8.53-6q-3.65-3.95-5.77-9.66-2.11-5.71-2.11-13.02 0-6.55 1.88-12.15 1.89-5.6 5.54-9.69t9.05-6.41q5.39-2.32 12.41-2.32 6.67 0 11.69 2.15 5.01 2.15 9.02 6.15m35.84-8.3q6.61 0 12.04 2.15 5.42 2.15 9.28 6.09 3.85 3.94 5.94 9.63 2.09 5.68 2.09 12.7 0 7.08-2.09 12.76t-5.94 9.69q-3.86 4-9.28 6.14-5.43 2.15-12.04 2.15-6.67 0-12.12-2.15-5.45-2.14-9.31-6.14-3.86-4.01-5.97-9.69-2.12-5.68-2.12-12.76 0-7.02 2.12-12.7 2.11-5.69 5.97-9.63t9.31-6.09 12.12-2.15m0 50.29q7.42 0 10.99-4.99t3.57-14.61q0-9.63-3.57-14.68-3.57-5.04-10.99-5.04-7.54 0-11.16 5.07-3.63 5.08-3.63 14.65t3.63 14.58q3.62 5.02 11.16 5.02m54.64 10.15h-14.33v-59.51h8.76q2.78 0 3.65 2.61l.93 4.41q1.57-1.74 3.28-3.19t3.65-2.49q1.94-1.05 4.18-1.66 2.23-.61 4.9-.61 5.63 0 9.25 3.05 3.63 3.04 5.42 8.09 1.4-2.96 3.48-5.08 2.09-2.11 4.58-3.45 2.5-1.33 5.31-1.97t5.66-.64q4.93 0 8.76 1.51 3.82 1.51 6.43 4.41t3.98 7.08q1.36 4.17 1.36 9.57v37.87h-14.33v-37.87q0-5.69-2.49-8.56-2.5-2.87-7.31-2.87-2.2 0-4.09.75-1.88.76-3.3 2.18t-2.24 3.57q-.81 2.14-.81 4.93v37.87h-14.38v-37.87q0-5.98-2.41-8.7-2.41-2.73-7.05-2.73-3.13 0-5.83 1.54-2.69 1.53-5.01 4.2zm83.29-59.51h14.38v59.51h-14.38zm16.35-17.34q0 1.86-.75 3.48-.76 1.62-2 2.84-1.25 1.22-2.93 1.94-1.69.73-3.6.73-1.85 0-3.51-.73-1.65-.72-2.87-1.94t-1.94-2.84q-.73-1.62-.73-3.48 0-1.91.73-3.6.72-1.68 1.94-2.9 1.22-1.21 2.87-1.94 1.66-.72 3.51-.72 1.91 0 3.6.72 1.68.73 2.93 1.94 1.24 1.22 2 2.9.75 1.69.75 3.6m25.06 19.95.98 4.7q1.8-1.8 3.8-3.34 2-1.53 4.24-2.61 2.23-1.07 4.78-1.68t5.57-.61q4.87 0 8.64 1.66 3.77 1.65 6.29 4.64 2.53 2.98 3.83 7.13 1.31 4.15 1.31 9.14v37.87h-14.33v-37.87q0-5.46-2.49-8.44-2.5-2.99-7.6-2.99-3.71 0-6.96 1.68t-6.15 4.58v43.04h-14.33v-59.51h8.76q2.79 0 3.66 2.61m74.76 25.7q2.67 0 4.64-.73 1.97-.72 3.28-2 1.3-1.28 1.97-3.07.67-1.8.67-3.95 0-4.41-2.64-6.99t-7.92-2.58-7.92 2.58-2.64 6.99q0 2.09.67 3.89t1.97 3.1q1.31 1.31 3.31 2.03 2 .73 4.61.73m16.18 33.87q0-1.74-1.04-2.84-1.05-1.11-2.84-1.72-1.8-.6-4.21-.89t-5.1-.44q-2.7-.14-5.57-.26t-5.6-.46q-2.38 1.33-3.86 3.13-1.47 1.8-1.47 4.17 0 1.57.78 2.93.78 1.37 2.49 2.35 1.71.99 4.44 1.54t6.67.55q4 0 6.9-.61t4.79-1.68q1.88-1.07 2.75-2.55t.87-3.22m-2.84-60.15h17.11v5.34q0 2.55-3.07 3.13l-5.34.99q1.22 3.07 1.22 6.72 0 4.41-1.77 7.98t-4.9 6.06-7.4 3.86q-4.26 1.36-9.19 1.36-1.74 0-3.36-.17-1.63-.18-3.19-.47-2.79 1.68-2.79 3.77 0 1.8 1.65 2.64 1.66.84 4.38 1.19 2.73.35 6.21.43 3.48.09 7.13.38 3.66.29 7.14 1.02 3.48.72 6.2 2.29 2.73 1.56 4.38 4.26 1.66 2.7 1.66 6.93 0 3.95-1.95 7.66-1.94 3.71-5.62 6.61-3.69 2.9-9.05 4.67-5.37 1.77-12.21 1.77-6.73 0-11.72-1.31-4.98-1.3-8.29-3.48-3.31-2.17-4.93-5.01-1.62-2.85-1.62-5.92 0-4.18 2.52-6.99t6.93-4.49q-2.38-1.22-3.77-3.25t-1.39-5.34q0-1.33.49-2.75t1.45-2.82q.96-1.39 2.41-2.63 1.45-1.25 3.42-2.24-4.52-2.43-7.11-6.49-2.58-4.06-2.58-9.52 0-4.4 1.77-7.97t4.93-6.09 7.48-3.86q4.33-1.33 9.43-1.33 3.83 0 7.19.78 3.37.78 6.15 2.29m93.9 4.41-3.25 5.16q-.58.93-1.21 1.31-.64.37-1.63.37-1.04 0-2.23-.58t-2.76-1.3q-1.56-.73-3.56-1.31t-4.73-.58q-4.23 0-6.64 1.8t-2.41 4.7q0 1.91 1.25 3.22 1.25 1.3 3.3 2.29 2.06.99 4.67 1.77t5.31 1.71 5.31 2.12 4.67 3.01q2.06 1.83 3.3 4.38 1.25 2.55 1.25 6.15 0 4.29-1.54 7.92-1.53 3.62-4.55 6.26t-7.45 4.12q-4.44 1.48-10.24 1.48-3.07 0-6-.55t-5.63-1.54-4.99-2.32-4.03-2.9l3.31-5.45q.64-.99 1.51-1.51t2.2-.52 2.52.75q1.19.76 2.76 1.63 1.56.87 3.68 1.62t5.37.75q2.55 0 4.37-.6 1.83-.61 3.02-1.6t1.74-2.29q.55-1.31.55-2.7 0-2.09-1.25-3.42-1.24-1.33-3.3-2.32t-4.7-1.77-5.39-1.71q-2.76-.93-5.4-2.18-2.64-1.24-4.7-3.16-2.05-1.91-3.3-4.69-1.25-2.79-1.25-6.73 0-3.66 1.45-6.96 1.45-3.31 4.26-5.77 2.82-2.47 7.02-3.95 4.21-1.48 9.72-1.48 6.15 0 11.19 2.03 5.05 2.03 8.41 5.34m37.76-7.37q6.61 0 12.03 2.15 5.43 2.15 9.28 6.09 3.86 3.94 5.95 9.63 2.09 5.68 2.09 12.7 0 7.08-2.09 12.76t-5.95 9.69q-3.85 4-9.28 6.14-5.42 2.15-12.03 2.15-6.67 0-12.12-2.15-5.45-2.14-9.31-6.14-3.86-4.01-5.98-9.69-2.11-5.68-2.11-12.76 0-7.02 2.11-12.7 2.12-5.69 5.98-9.63t9.31-6.09 12.12-2.15m0 50.29q7.42 0 10.99-4.99t3.57-14.61q0-9.63-3.57-14.68-3.57-5.04-10.99-5.04-7.54 0-11.17 5.07-3.62 5.08-3.62 14.65t3.62 14.58q3.63 5.02 11.17 5.02m66.64-50.29q6.61 0 12.04 2.15 5.42 2.15 9.28 6.09 3.85 3.94 5.94 9.63 2.09 5.68 2.09 12.7 0 7.08-2.09 12.76t-5.94 9.69q-3.86 4-9.28 6.14-5.43 2.15-12.04 2.15-6.67 0-12.12-2.15-5.45-2.14-9.31-6.14-3.86-4.01-5.97-9.69-2.12-5.68-2.12-12.76 0-7.02 2.12-12.7 2.11-5.69 5.97-9.63t9.31-6.09 12.12-2.15m0 50.29q7.43 0 10.99-4.99 3.57-4.99 3.57-14.61 0-9.63-3.57-14.68-3.56-5.04-10.99-5.04-7.54 0-11.16 5.07-3.63 5.08-3.63 14.65t3.63 14.58q3.62 5.02 11.16 5.02m52.72-46.75.99 4.7q1.8-1.8 3.8-3.34 2-1.53 4.23-2.61 2.24-1.07 4.79-1.68t5.57-.61q4.87 0 8.64 1.66 3.77 1.65 6.29 4.64 2.52 2.98 3.83 7.13 1.3 4.15 1.3 9.14v37.87h-14.32v-37.87q0-5.46-2.5-8.44-2.49-2.99-7.6-2.99-3.71 0-6.95 1.68-3.25 1.68-6.15 4.58v43.04h-14.33v-59.51h8.76q2.78 0 3.65 2.61"/></svg>